<svg width="333" height="139" viewBox="0 0 333 139" fill="none"
    xmlns="http://www.w3.org/2000/svg">
    <g clip-path="url(#clip0_1_1035)">
        <path d="M0 87.1984V89.1787H332.015V87.1984H0ZM23.7484 112.835C21.4095 119.895 17.323 131.001 15.2411 138.323C14.4018 138.185 13.555 138.097 12.7052 138.061C11.8441 138.098 10.9859 138.185 10.135 138.323C7.98467 129.24 0.856724 104.73 0.124225 102.505C1.51266 102.661 2.90802 102.747 4.30504 102.762C5.64946 102.749 6.9922 102.663 8.32736 102.505C10.3621 111.378 12.9579 121.451 14.847 128.725H14.9413C17.8841 119.994 22.112 107.336 23.5085 102.505C24.3291 102.663 25.1618 102.749 25.9973 102.762C26.8313 102.749 27.6626 102.663 28.4818 102.505C29.3771 107.122 34.5474 121.863 36.3379 128.725H36.4408C38.9809 119.994 42.9047 106.599 43.8 102.505C44.4867 102.659 45.1869 102.746 45.8904 102.762C46.6605 102.746 47.4275 102.66 48.1822 102.505C46.82 106.496 40.009 126.852 36.8391 138.323C36.0012 138.185 35.1558 138.097 34.3075 138.061C33.4464 138.097 32.5882 138.185 31.7373 138.323C29.5955 129.801 26.8626 121.348 23.8769 112.835H23.7484ZM97.191 104.786C90.3758 104.786 86.3963 111.952 86.3963 120.881C86.3963 131.936 91.2668 135.785 96.8398 135.785C102.807 135.785 108.033 130.594 108.033 119.274C108.033 110.272 103.604 104.786 97.191 104.786ZM97.3367 101.828C107.883 101.828 116.185 107.829 116.185 120.362C116.185 130.65 108.277 139 97.1825 139C86.6876 139 78.2275 133.397 78.2275 120.418C78.2275 110.186 85.788 101.828 97.3281 101.828H97.3367ZM165.134 105.467C165.031 110.182 164.979 114.854 164.979 119.578C165.343 119.642 165.711 119.679 166.08 119.689C170.458 119.689 172.844 117.143 172.844 112.261C172.844 106.14 170.552 105.467 165.134 105.467ZM165.433 121.816H164.979V123.959C164.979 129.771 165.078 133.775 165.378 138.34C162.676 137.992 159.941 137.992 157.239 138.34C157.534 133.775 157.633 129.767 157.633 123.959V116.882C157.633 111.069 157.534 107.07 157.239 102.505C158.335 102.604 159.68 102.762 161.321 102.762C163.103 102.762 165.249 102.505 168.633 102.505C173.654 102.505 175.487 102.964 177.23 104.271C179.222 105.771 180.465 108.06 180.465 111.13C180.465 116.17 177.685 119.385 172.754 120.68C175.941 126.552 179.711 132.476 183.347 138.335C181.857 138.233 180.349 138.074 178.875 138.074C177.402 138.074 175.838 138.233 174.339 138.335L165.433 121.816ZM234.125 116.882C234.125 111.069 234.018 107.07 233.719 102.505C234.811 102.604 236.156 102.762 237.801 102.762C239.446 102.762 240.799 102.604 241.883 102.505C241.583 107.07 241.48 111.078 241.48 116.882V123.942C241.48 127.799 241.536 131.73 241.583 134.43C245.392 134.435 249.197 134.207 252.978 133.749C252.838 134.523 252.769 135.307 252.772 136.094C252.762 136.84 252.831 137.586 252.978 138.318C251.179 138.271 248.848 138.07 244.265 138.07C236.156 138.07 234.811 138.22 233.719 138.318C234.018 133.749 234.125 129.745 234.125 123.942V116.882ZM308.056 125.086C308.056 127.889 308.056 134.22 308.108 135.202C309.106 135.262 310.442 135.369 312.481 135.369C319.948 135.369 324.668 130.071 324.668 119.274C324.668 110.761 320.145 105.463 313.278 105.463C311.551 105.444 309.824 105.531 308.108 105.724C308.056 106.706 308.056 113.041 308.056 115.84V125.086ZM300.71 116.882C300.71 111.069 300.612 107.07 300.316 102.505C301.404 102.604 302.741 102.762 304.39 102.762C306.566 102.762 309.016 102.505 313.385 102.505C324.724 102.505 332.533 106.294 332.533 119.372C332.533 130.8 324.673 138.318 315.326 138.318C310.344 138.318 306.968 138.07 304.381 138.07C302.732 138.07 301.383 138.22 300.307 138.318C300.603 133.749 300.702 129.745 300.702 123.942L300.71 116.882ZM0.668245 1.24714H22.0863L29.7969 42.1267L41.0842 1.24714H62.4252L73.7382 42.071L81.4487 1.24714H102.764L86.679 74.2706H64.567L51.7675 28.2902L39.0152 74.2706H16.9032L0.668245 1.24714ZM154.998 62.2172H129.395L125.84 74.2706H102.807L130.222 1.24714H154.819L182.234 74.2706H158.648L154.998 62.2172ZM150.321 46.426L142.268 20.176L134.296 46.426H150.321ZM185.502 50.1123L206.954 48.7664C207.423 52.2555 208.37 54.9117 209.795 56.7348C212.116 59.6925 215.435 61.1713 219.75 61.1713C222.965 61.1713 225.445 60.4154 227.19 58.9038C228.935 57.3921 229.806 55.6404 229.803 53.6486C229.803 51.754 228.974 50.0609 227.315 48.5692C225.655 47.0775 221.8 45.6659 215.749 44.3342C205.859 42.1081 198.807 39.1519 194.592 35.4656C190.377 31.7793 188.259 27.08 188.239 21.3676C188.246 17.5721 189.381 13.8643 191.499 10.7158C193.67 7.38101 196.938 4.75772 201.304 2.84598C205.671 0.934232 211.654 -0.0144953 219.253 -0.000207219C228.58 -0.000207219 235.689 1.73436 240.581 5.20351C245.473 8.67265 248.381 14.1936 249.307 21.7662L228.051 23.0136C227.48 19.7273 226.294 17.3369 224.492 15.8424C222.69 14.3479 220.192 13.6006 217 13.6006C214.378 13.6006 212.403 14.1564 211.075 15.268C210.455 15.7465 209.952 16.3615 209.607 17.0653C209.261 17.7692 209.082 18.5431 209.083 19.3273C209.083 20.4874 209.632 21.5333 210.728 22.4649C211.825 23.3965 214.347 24.2938 218.293 25.1568C228.148 27.2829 235.209 29.4261 239.476 31.5864C243.742 33.7468 246.845 36.4444 248.784 39.6792C250.737 42.9431 251.745 46.6857 251.697 50.4895C251.719 55.0967 250.366 59.6055 247.812 63.4388C245.162 67.4453 241.387 70.5774 236.961 72.4403C232.312 74.4806 226.458 75.5022 219.398 75.5051C206.984 75.5051 198.389 73.1132 193.611 68.3296C188.833 63.546 186.13 57.4735 185.502 50.1123ZM263.16 1.24714H285.717V26.7985H310.348V1.24714H333V74.2706H310.348V44.7329H285.717V74.2706H263.16V1.24714Z" fill="white"/>
    </g>
    <defs>
        <clipPath id="clip0_1_1035">
            <rect width="333" height="139" fill="white"/>
        </clipPath>
    </defs>
</svg>
